<?xml version="1.0" standalone="no"?>
<!DOCTYPE svg PUBLIC "-//W3C//DTD SVG 20010904//EN"
 "http://www.w3.org/TR/2001/REC-SVG-20010904/DTD/svg10.dtd">
<svg version="1.0" xmlns="http://www.w3.org/2000/svg"
 width="100.000000pt" height="47.000000pt" viewBox="0 0 100.000000 47.000000"
 preserveAspectRatio="xMidYMid meet">

<g transform="translate(0.000000,47.000000) scale(0.100000,-0.100000)"
fill="#000000" stroke="none">
<path d="M275 440 c-64 -10 -147 -42 -196 -76 -38 -26 -79 -83 -79 -109 0 -19
48 -55 74 -55 20 -1 19 -2 -7 -26 -19 -16 -27 -30 -23 -41 5 -12 9 -14 18 -5
24 24 26 11 7 -38 -23 -60 -23 -70 -5 -70 8 0 26 34 43 83 31 85 33 87 106
102 15 3 27 12 27 21 0 13 -7 14 -41 9 -40 -7 -41 -6 -34 16 4 13 17 43 30 66
19 36 21 44 9 54 -14 11 -22 -2 -71 -123 -12 -30 -21 -38 -40 -38 -37 0 -63
18 -63 44 0 25 57 84 107 109 60 32 174 59 220 54 37 -4 43 -2 32 8 -20 18
-57 23 -114 15z"/>
<path d="M910 370 c0 -5 -13 -7 -30 -4 -24 5 -35 1 -60 -25 -27 -26 -31 -37
-28 -73 2 -35 7 -44 25 -46 13 -2 27 5 37 19 15 22 17 22 29 6 17 -24 39 -14
82 39 44 53 38 58 -8 7 -46 -49 -62 -37 -37 27 16 41 17 49 5 54 -8 3 -15 1
-15 -4z m-20 -45 c-26 -69 -70 -104 -70 -56 0 35 35 81 60 81 17 0 18 -4 10
-25z"/>
<path d="M692 275 c-59 -92 -77 -87 -37 12 11 26 11 32 0 37 -8 3 -19 -9 -28
-32 -8 -20 -32 -53 -52 -72 l-38 -35 7 30 c18 77 19 95 2 95 -9 0 -28 -12 -42
-27 -21 -23 -25 -24 -22 -9 7 38 -18 25 -36 -20 -30 -72 -129 -132 -144 -86
-2 7 5 12 16 12 27 0 72 38 72 60 0 44 -65 43 -94 -2 -26 -41 -29 -72 -8 -97
23 -29 49 -23 102 25 36 33 37 33 32 9 -3 -18 0 -25 11 -25 8 0 17 13 20 30 4
16 23 47 43 67 32 34 35 35 29 13 -26 -95 -12 -120 41 -69 26 25 34 29 34 16
0 -39 62 -27 75 14 4 11 9 19 11 16 9 -9 -22 -74 -48 -100 -33 -33 -46 -73
-29 -90 19 -19 44 4 66 61 21 55 36 62 73 36 24 -17 27 -13 12 17 -6 10 -20
19 -30 19 -25 0 -25 2 4 88 32 93 15 96 -42 7z m-322 -25 c0 -14 -46 -60 -60
-60 -13 0 -5 16 23 48 22 24 37 29 37 12z m270 -160 c-7 -16 -16 -30 -21 -30
-12 0 -11 6 7 41 20 39 31 30 14 -11z"/>
</g>
</svg>
